<svg xmlns="http://www.w3.org/2000/svg" viewBox="0 0 64 64">
  <defs>
    <linearGradient id="sand" x1="12" x2="52" y1="8" y2="58">
      <stop stop-color="#fff0b8"/>
      <stop offset="0.58" stop-color="#ffc46f"/>
      <stop offset="1" stop-color="#ff8a5b"/>
    </linearGradient>
    <linearGradient id="palm" x1="18" x2="48" y1="16" y2="52">
      <stop stop-color="#2f7d5a"/>
      <stop offset="1" stop-color="#143d2b"/>
    </linearGradient>
  </defs>

  <circle cx="32" cy="32" r="30" fill="url(#sand)"/>
  <path d="M32 2a30 30 0 0 1 0 60" fill="none" stroke="#f8faf4" stroke-width="3" opacity=".7"/>
  <path d="M32 2a30 30 0 0 0 0 60" fill="none" stroke="#f8faf4" stroke-width="3" opacity=".7"/>
  <path d="M7 35c10-8 40-8 50 0" fill="none" stroke="#f8faf4" stroke-width="3" opacity=".72"/>
  <path d="M9 23c11 8 35 8 46 0" fill="none" stroke="#f8faf4" stroke-width="3" opacity=".55"/>

  <path d="M30 54c3-11 5-21 5-34" fill="none" stroke="#6f4a2e" stroke-width="5" stroke-linecap="round"/>
  <path d="M34 21c-8-8-17-6-23 1 9 1 16 3 23-1Z" fill="url(#palm)"/>
  <path d="M35 21c-3-10 3-17 12-19-1 9-4 16-12 19Z" fill="url(#palm)"/>
  <path d="M36 22c8-8 18-6 22 2-9 0-16 2-22-2Z" fill="url(#palm)"/>
  <path d="M35 23c7 1 12 7 13 15-7-3-12-7-13-15Z" fill="url(#palm)"/>
  <path d="M33 23c-8 1-14 7-15 15 8-3 14-7 15-15Z" fill="url(#palm)"/>
</svg>
